<svg id="49134125-1184-4187-a78a-255211bfcda5"  xmlns="http://www.w3.org/2000/svg" viewBox="0 0 578.37 148.64">
	<path d="M174.49,46.19h64.1a20.29,20.29,0,0,1,20.24,20.24V174.58a20.29,20.29,0,0,1-20.24,20.24H136.66V158.18c0-9.31,11.7-15.31,19.21-4.81,13.41,18.78,36.85,24.14,57.17,13.1,38.09-20.68,39.07-101.78-2-97.66-11.32,1.15-18.75,8.55-27.88,8s-8.67-11.7-8.67-11.7Z" transform="translate(-110.19 -46.19)" style="fill:#df8d2e;fill-rule:evenodd"/>
	<path d="M130.43,46.19h31.46V69.67c0,12.5,3.27,20,9.15,24.39,9,6.64,22.44,14.68,18.77,28.38S171.19,136,165.48,135.05s-20.42-7.8-31.53,0-10.21,21.62-10.21,21.62v37a20.3,20.3,0,0,1-13.55-19.09V66.42a20.29,20.29,0,0,1,20.24-20.24Z" transform="translate(-110.19 -46.19)" style="fill:#573b1b;fill-rule:evenodd"/>
	<path d="M363.08,114.58V143c-4.59,6.21-15.84,10.71-27.18,9.54-18-1.89-29.52-14-29.52-32.13s11.7-31.14,30-32.13c9.9-.45,19.08,2.43,24.84,7L355,104.05a31.9,31.9,0,0,0-18.36-4c-10.26.36-18,8.82-18,20.34s6.93,18.63,18.27,20.16c6.21.81,11.43-.36,14.67-2.79V114.58Z" transform="translate(-110.19 -46.19)" style="fill:#573b1b"/>
	<path d="M406.74,124.75v27.09H394.86v-4c-1.62,1.62-5.94,4.77-13.32,4.77-8.46,0-13.14-4.41-13.5-11,0-9.45,6.48-12.78,15.66-14.76,7.29-1.62,10.35-1.62,10.89-4,.63-2.61-2.16-5.31-6.39-5.13-3.69.09-6.48,1.8-7.2,5.13l-10-2.16c.81-5.67,7.2-12.78,18-12.78C398.46,107.83,406.74,112.15,406.74,124.75Zm-11.88,8s-4,.81-9.63,2.25c-4.41,1.17-5.67,4-4.86,6.21.72,2,3.42,2.52,6.12,2.07a9.8,9.8,0,0,0,8.37-9.18Z" transform="translate(-110.19 -46.19)" style="fill:#573b1b"/>
	<path d="M446.61,139.33c-.27,7.83-7.29,13.14-17.28,13.14-9.09,0-17.1-5-18.54-10.35l8.73-4.68c.9,2.25,4.68,4,7.74,4.23,3.24.18,6.84-.63,6.75-3s-2.16-2.7-8.19-4.77c-9.45-3.33-13.59-6.57-13.32-13.68.27-6,5.13-12.33,16.38-12.33,10.44,0,15.39,6.75,16,10.71l-9.18,2.61a5.58,5.58,0,0,0-5.22-3.78c-4.59-.36-5.76,1.89-5.67,3.06.09,1.62,1.35,2.7,8.19,4.77C443.19,128.44,446.88,132.76,446.61,139.33Z" transform="translate(-110.19 -46.19)" style="fill:#573b1b"/>
	<path d="M480.18,148.24a16.69,16.69,0,0,1-11.43,4c-9.18,0-14.31-4.77-14.31-13.77V120H448.5V108.46h5.94V98.74l12-2.7v12.42h10.08V120H466.41v14.67c0,3.87,1,6.21,4.77,6.21a8.39,8.39,0,0,0,5-1.8Z" transform="translate(-110.19 -46.19)" style="fill:#573b1b"/>
	<path d="M510.15,108.1l-2.25,12a7.15,7.15,0,0,0-4.05-1.08c-4.23,0-7.2,2.88-7.2,9.27v23.58h-12V108.46h12v3.78a13.8,13.8,0,0,1,10.08-4.41A21.1,21.1,0,0,1,510.15,108.1Z" transform="translate(-110.19 -46.19)" style="fill:#573b1b"/>
	<path d="M555.42,130.15c0,12.51-9.45,22.41-22,22.41s-22-9.9-22-22.41,9.45-22.32,22-22.32S555.42,117.64,555.42,130.15Zm-11.7,0c0-6.48-3.78-11.43-10.26-11.43s-10.26,4.95-10.26,11.43,3.78,11.43,10.26,11.43S543.71,136.63,543.71,130.15Z" transform="translate(-110.19 -46.19)" style="fill:#573b1b"/>
	<path d="M618.36,114.58V143c-4.59,6.21-15.84,10.71-27.18,9.54-18-1.89-29.52-14-29.52-32.13s11.7-31.14,30-32.13c9.9-.45,19.08,2.43,24.84,7l-6.21,8.73a31.91,31.91,0,0,0-18.36-4c-10.26.36-18,8.82-18,20.34s6.93,18.63,18.27,20.16c6.21.81,11.43-.36,14.67-2.79V114.58Z" transform="translate(-110.19 -46.19)" style="fill:#df8d2e"/>
	<path d="M625.56,95.77a6.71,6.71,0,1,1,6.75,6.66A6.68,6.68,0,0,1,625.56,95.77Zm.72,12.69h12v43.38h-12Z" transform="translate(-110.19 -46.19)" style="fill:#df8d2e"/>
	<path d="M688.56,88.84v63h-12v-3.69A17.15,17.15,0,0,1,665,152.56c-12.51,0-20.61-9.9-20.61-22.41s8.1-22.32,20.61-22.32a17.15,17.15,0,0,1,11.61,4.41V88.84Zm-12,41.31c0-6.48-3.78-11.43-10.26-11.43s-10.26,4.95-10.26,11.43,3.78,11.43,10.26,11.43S676.59,136.63,676.59,130.15Z" transform="translate(-110.19 -46.19)" style="fill:#df8d2e"/>
</svg>